<svg width="96" height="96" viewBox="0 0 96 96" fill="none" xmlns="http://www.w3.org/2000/svg" role="img" aria-labelledby="title desc">
  <title id="title">Jack Daniel's Monogram Logo</title>
  <desc id="desc">Minimal modern JD monogram with Tennessee accent star.</desc>
  <rect x="2" y="2" width="92" height="92" rx="24" stroke="url(#frame)" stroke-width="4"/>
  <path d="M31 26H63" stroke="url(#line)" stroke-width="5" stroke-linecap="round"/>
  <path d="M37 32V56C37 63.1797 31.1797 69 24 69" stroke="url(#line)" stroke-width="7" stroke-linecap="round"/>
  <path d="M57 32V69H67.5C76.0604 69 83 62.0604 83 53.5C83 44.9396 76.0604 38 67.5 38H57" stroke="url(#line)" stroke-width="7" stroke-linecap="round" stroke-linejoin="round"/>
  <path d="M48 17L49.8653 20.7812L54 21.382L51 24.306L51.7082 28.434L48 26.484L44.2918 28.434L45 24.306L42 21.382L46.1347 20.7812L48 17Z" fill="#D97706"/>
  <defs>
    <linearGradient id="line" x1="20" y1="18" x2="82" y2="74" gradientUnits="userSpaceOnUse">
      <stop stop-color="#F8FAFC"/>
      <stop offset="1" stop-color="#D1D5DB"/>
    </linearGradient>
    <linearGradient id="frame" x1="14" y1="9" x2="78" y2="88" gradientUnits="userSpaceOnUse">
      <stop stop-color="#FFFFFF" stop-opacity="0.78"/>
      <stop offset="1" stop-color="#6B7280" stop-opacity="0.4"/>
    </linearGradient>
  </defs>
</svg>
