<svg xmlns="http://www.w3.org/2000/svg" viewBox="0 0 240 480" role="img" aria-label="Vodka bottle">
  <defs>
    <linearGradient id="glass" x1="0" y1="0" x2="0" y2="1">
      <stop offset="0%" stop-color="#ecfeff" stop-opacity=".95"/>
      <stop offset="45%" stop-color="#bae6fd" stop-opacity=".7"/>
      <stop offset="100%" stop-color="#0f172a" stop-opacity=".95"/>
    </linearGradient>
    <linearGradient id="shine" x1="0" y1="0" x2="1" y2="0">
      <stop offset="0%" stop-color="#fff" stop-opacity=".65"/>
      <stop offset="100%" stop-color="#fff" stop-opacity="0"/>
    </linearGradient>
    <linearGradient id="cap" x1="0" y1="0" x2="0" y2="1">
      <stop offset="0%" stop-color="#f8fafc"/>
      <stop offset="100%" stop-color="#94a3b8"/>
    </linearGradient>
  </defs>

  <rect x="98" y="22" width="44" height="40" rx="8" fill="#0f172a"/>
  <rect x="90" y="10" width="60" height="18" rx="4" fill="url(#cap)"/>

  <path d="M70 72h100c10 0 18 8 18 18v320c0 24-20 44-44 44h-48c-24 0-44-20-44-44V90c0-10 8-18 18-18z" fill="url(#glass)" stroke="#e2e8f0" stroke-opacity=".45" stroke-width="4"/>

  <rect x="82" y="186" width="76" height="110" rx="8" fill="#f8fafc" fill-opacity=".92" stroke="#cbd5e1" stroke-opacity=".8"/>
  <text x="120" y="220" text-anchor="middle" font-size="22" font-family="Arial, sans-serif" font-weight="700" fill="#0f172a">GREY</text>
  <text x="120" y="248" text-anchor="middle" font-size="22" font-family="Arial, sans-serif" font-weight="700" fill="#0f172a">GOOSE</text>
  <text x="120" y="274" text-anchor="middle" font-size="14" font-family="Arial, sans-serif" fill="#334155">VODKA</text>

  <rect x="88" y="82" width="18" height="330" rx="9" fill="url(#shine)"/>
</svg>
